<svg width="96" height="96" viewBox="0 0 96 96" fill="none" xmlns="http://www.w3.org/2000/svg">
<path d="M84 40L80.462 13.472C80.198 11.484 78.502 10 76.498 10H19.502C17.498 10 15.802 11.484 15.538 13.472L12 40" stroke="#252525" stroke-width="2" stroke-miterlimit="10" stroke-linecap="round" stroke-linejoin="round"/>
<path d="M28 74V86H10V74" stroke="#252525" stroke-width="2" stroke-miterlimit="10" stroke-linecap="round" stroke-linejoin="round"/>
<path d="M86 74V86H68V74" stroke="#252525" stroke-width="2" stroke-miterlimit="10" stroke-linecap="round" stroke-linejoin="round"/>
<path d="M92 74H4V52.806C4 50.99 4.618 49.226 5.754 47.808L12 40H84L90.246 47.808C91.382 49.228 92 50.99 92 52.806V74Z" stroke="#252525" stroke-width="2" stroke-miterlimit="10" stroke-linecap="round" stroke-linejoin="round"/>
<path d="M76 64C79.3137 64 82 61.3137 82 58C82 54.6863 79.3137 52 76 52C72.6863 52 70 54.6863 70 58C70 61.3137 72.6863 64 76 64Z" stroke="#252525" stroke-width="2" stroke-miterlimit="10" stroke-linecap="round" stroke-linejoin="round"/>
<path d="M20 64C23.3137 64 26 61.3137 26 58C26 54.6863 23.3137 52 20 52C16.6863 52 14 54.6863 14 58C14 61.3137 16.6863 64 20 64Z" stroke="#252525" stroke-width="2" stroke-miterlimit="10" stroke-linecap="round" stroke-linejoin="round"/>
<path d="M42 58H54" stroke="#252525" stroke-width="2" stroke-miterlimit="10" stroke-linecap="round" stroke-linejoin="round"/>
</svg>
